<svg width="14.49501" height="20" viewBox="0 0 14.49501 20" xmlns="http://www.w3.org/2000/svg">
  <g fill="#000" fill-rule="evenodd" class="svg-fill"
     transform="matrix(0.22648454,0,0,0.22648454,-4.4164485,-1.1935169)">
    <path
      d="m 51.5,93.576 c -17.645,0 -32,-14.355 -32,-32 0,-12.238 9.191,-25.064 18.922,-38.644 3.947,-5.506 8.027,-11.199 11.363,-16.76 0.723,-1.203 2.707,-1.203 3.43,0 3.346,5.576 7.439,11.258 11.398,16.752 9.713,13.483 18.887,26.215 18.887,38.652 0,17.645 -14.355,32 -32,32 z m 0,-82.572 c -3.039,4.787 -6.48,9.59 -9.826,14.258 C 32.328,38.305 23.5,50.623 23.5,61.576 c 0,15.439 12.561,28 28,28 15.439,0 28,-12.561 28,-28 C 79.5,50.43 70.691,38.205 61.367,25.262 58.008,20.6 54.553,15.803 51.5,11.004 Z"
    />
  </g>
</svg>
