<svg width="20" height="15.594349" viewBox="0 0 20 15.594349" xmlns="http://www.w3.org/2000/svg">
  <g fill="#000" class="svg-fill" transform="matrix(0.22222222,0,0,0.22222222,-1.1111111,-3.3138731)">
    <circle cx="24.83" cy="50.377998" r="19.83"/>
    <path
      d="m 75.17,30.548 c -10.934,0 -19.83,8.896 -19.83,19.83 0,10.934 8.895,19.83 19.83,19.83 10.934,0 19.83,-8.896 19.83,-19.83 0,-10.934 -8.896,-19.83 -19.83,-19.83 z m 0,35.848 c -8.831,0 -16.018,-7.185 -16.018,-16.017 0,-8.832 7.187,-16.017 16.018,-16.017 8.831,0 16.018,7.186 16.018,16.017 0,8.831 -7.187,16.017 -16.018,16.017 z"
    />
    <path
      d="m 26.512,25.156 c 0.307,0 0.613,-0.123 0.84,-0.367 0.07,-0.076 7.182,-7.589 19.771,-7.589 0.121,0 0.245,0.001 0.368,0.002 10.137,0.117 16.37,4.085 18.564,5.766 l -5.58,0.104 c -0.632,0.011 -1.134,0.532 -1.121,1.165 0.012,0.623 0.521,1.123 1.144,1.123 0.007,0 0.015,0 0.021,0 l 9.637,-0.18 -0.926,-9.002 c -0.067,-0.629 -0.642,-1.089 -1.256,-1.021 -0.629,0.064 -1.086,0.627 -1.021,1.255 l 0.486,4.723 C 64.958,19.212 58.348,15.04 47.517,14.914 33.678,14.783 25.995,22.889 25.673,23.232 c -0.429,0.465 -0.402,1.188 0.061,1.617 0.22,0.207 0.498,0.307 0.778,0.307 z"
    />
    <path
      d="M 72.79,75.134 C 72.703,75.212 63.937,82.978 51.049,82.796 40.916,82.679 34.684,78.714 32.487,77.032 l 5.573,-0.105 c 0.633,-0.012 1.135,-0.533 1.123,-1.164 C 39.17,75.13 38.652,74.638 38.017,74.64 l -9.637,0.18 0.928,9.002 c 0.061,0.589 0.558,1.027 1.137,1.027 0.039,0 0.078,-0.002 0.119,-0.007 0.629,-0.065 1.086,-0.627 1.021,-1.255 l -0.487,-4.726 c 2.48,1.922 9.092,6.097 19.924,6.223 0.135,0.002 0.267,0.003 0.4,0.003 13.535,0 22.516,-7.908 22.895,-8.249 0.472,-0.423 0.511,-1.146 0.09,-1.614 -0.425,-0.472 -1.145,-0.513 -1.617,-0.09 z"
    />
  </g>
</svg>
