<svg width="19.997761" height="20" viewBox="0 0 19.997761 20" xmlns="http://www.w3.org/2000/svg">
  <g transform="matrix(0.33331911,0,0,0.33331911,-6.9323044e-4,8.535361e-4)">
    <path
      d="m 27.21,0.02 c -0.46,-0.1 -0.93,0.14 -1.12,0.57 l -26,58 C -0.05,58.9 -0.02,59.26 0.16,59.54 0.34,59.83 0.66,60 1,60 l 26,0 c 0.55,0 1,-0.45 1,-1 L 28,1 C 28,0.53 27.67,0.12 27.21,0.02 Z M 26,58 2.54,58 26,5.68 26,58 Z"
      fill="#000" class="svg-fill"/>
    <path
      d="m 59.91,58.59 -26,-58 C 33.72,0.16 33.25,-0.08 32.79,0.02 32.33,0.12 32,0.53 32,1 l 0,58 c 0,0.55 0.45,1 1,1 l 26,0 c 0.34,0 0.66,-0.17 0.84,-0.46 0.18,-0.28 0.21,-0.64 0.07,-0.95 z M 34,58 34,5.68 57.46,58 34,58 Z"
      fill="#000" class="svg-fill"/>
  </g>
</svg>
